<svg width="128" height="128" viewBox="0 0 128 128" fill="none" xmlns="http://www.w3.org/2000/svg">
  <rect width="128" height="128" rx="22" fill="#17140F"/>
  <path d="M42 22h44v12l-13 17v14l28 39c4 6 0 14-7 14H34c-7 0-11-8-7-14l28-39V51L42 34V22Z" fill="#F5EFE1"/>
  <path d="M48 94h32c5 0 8-6 5-10L71 65v-9l10-14H47l10 14v9L43 84c-3 4 0 10 5 10Z" fill="#386F4E"/>
  <circle cx="64" cy="81" r="14" fill="#BC8B2D"/>
  <path d="M50 31h28" stroke="#17140F" stroke-width="6" stroke-linecap="round"/>
  <path d="M38 106h52" stroke="#BC8B2D" stroke-width="6" stroke-linecap="round"/>
</svg>

