<svg xmlns="http://www.w3.org/2000/svg" width="256" height="64" viewBox="0 0 256 64">
  <defs>
    <linearGradient id="green" x1="0" x2="1" y1="0" y2="1">
      <stop offset="0" stop-color="#9be0a8"/>
      <stop offset="1" stop-color="#386d51"/>
    </linearGradient>
    <filter id="soft" x="-20%" y="-20%" width="140%" height="140%">
      <feDropShadow dx="0" dy="3" stdDeviation="2" flood-color="#000" flood-opacity=".35"/>
    </filter>
  </defs>
  <g filter="url(#soft)" stroke-linecap="round" stroke-linejoin="round">
    <g transform="translate(0 0)">
      <ellipse cx="32" cy="55" rx="17" ry="5" fill="#000" opacity=".25"/>
      <path d="M23 28h17l4 19-12 7-12-7z" fill="url(#green)" stroke="#193826" stroke-width="2"/>
      <circle cx="32" cy="20" r="8" fill="#ddb88c" stroke="#302015" stroke-width="2"/>
      <path d="M23 21c3-8 16-9 20-1-7-3-13-3-20 1z" fill="#3f604d"/>
      <path d="M42 34h12M49 28v12M38 34h-16" stroke="#c8a56d" stroke-width="3"/>
      <path d="M54 34l5-3v6z" fill="#d9d2c4"/>
    </g>
    <g transform="translate(64 0)">
      <ellipse cx="32" cy="55" rx="17" ry="5" fill="#000" opacity=".25"/>
      <path d="M22 29h17l5 18-12 7-13-7z" fill="url(#green)" stroke="#193826" stroke-width="2"/>
      <circle cx="31" cy="20" r="8" fill="#ddb88c" stroke="#302015" stroke-width="2"/>
      <path d="M22 21c3-8 16-9 20-1-7-3-13-3-20 1z" fill="#3f604d"/>
      <path d="M44 34h12M51 28v12M39 34h-17" stroke="#c8a56d" stroke-width="3"/>
      <path d="M57 34l5-3v6z" fill="#d9d2c4"/>
    </g>
    <g transform="translate(128 0)">
      <ellipse cx="32" cy="55" rx="17" ry="5" fill="#000" opacity=".25"/>
      <path d="M24 27h17l4 20-13 7-12-7z" fill="url(#green)" stroke="#193826" stroke-width="2"/>
      <circle cx="33" cy="19" r="8" fill="#ddb88c" stroke="#302015" stroke-width="2"/>
      <path d="M24 20c3-8 16-9 20-1-7-3-13-3-20 1z" fill="#3f604d"/>
      <path d="M40 35h16M49 29v12M36 35h-14" stroke="#c8a56d" stroke-width="3"/>
      <path d="M58 35l6-3v6z" fill="#d9d2c4"/>
    </g>
    <g transform="translate(192 0)">
      <ellipse cx="32" cy="55" rx="17" ry="5" fill="#000" opacity=".25"/>
      <path d="M23 28h17l4 19-12 7-12-7z" fill="url(#green)" stroke="#193826" stroke-width="2"/>
      <circle cx="32" cy="20" r="8" fill="#ddb88c" stroke="#302015" stroke-width="2"/>
      <path d="M23 21c3-8 16-9 20-1-7-3-13-3-20 1z" fill="#3f604d"/>
      <path d="M42 34h12M49 28v12M38 34h-16" stroke="#c8a56d" stroke-width="3"/>
      <path d="M54 34l5-3v6z" fill="#d9d2c4"/>
    </g>
  </g>
</svg>
