<svg xmlns="http://www.w3.org/2000/svg" width="256" height="64" viewBox="0 0 256 64">
  <defs>
    <linearGradient id="robe" x1="0" x2="1" y1="0" y2="1">
      <stop offset="0" stop-color="#ffd07a"/>
      <stop offset="1" stop-color="#8f3640"/>
    </linearGradient>
    <radialGradient id="flame">
      <stop offset="0" stop-color="#fff6b3"/>
      <stop offset=".5" stop-color="#ff9d32"/>
      <stop offset="1" stop-color="#d64232"/>
    </radialGradient>
    <filter id="soft" x="-20%" y="-20%" width="140%" height="140%">
      <feDropShadow dx="0" dy="3" stdDeviation="2" flood-color="#000" flood-opacity=".35"/>
    </filter>
  </defs>
  <g filter="url(#soft)" stroke-linecap="round" stroke-linejoin="round">
    <g transform="translate(0 0)">
      <ellipse cx="32" cy="55" rx="17" ry="5" fill="#000" opacity=".25"/>
      <path d="M24 28h16l6 20-14 6-14-6z" fill="url(#robe)" stroke="#4b1a21" stroke-width="2"/>
      <circle cx="32" cy="20" r="8" fill="#e5b282" stroke="#302015" stroke-width="2"/>
      <path d="M24 20c3-9 16-9 18 0-6-2-12-2-18 0z" fill="#5b2934"/>
      <circle cx="49" cy="27" r="6" fill="url(#flame)"/>
    </g>
    <g transform="translate(64 0)">
      <ellipse cx="32" cy="55" rx="17" ry="5" fill="#000" opacity=".25"/>
      <path d="M23 28h17l7 20-15 6-14-6z" fill="url(#robe)" stroke="#4b1a21" stroke-width="2"/>
      <circle cx="31" cy="20" r="8" fill="#e5b282" stroke="#302015" stroke-width="2"/>
      <path d="M23 20c3-9 16-9 18 0-6-2-12-2-18 0z" fill="#5b2934"/>
      <circle cx="51" cy="24" r="7" fill="url(#flame)"/>
    </g>
    <g transform="translate(128 0)">
      <ellipse cx="32" cy="55" rx="17" ry="5" fill="#000" opacity=".25"/>
      <path d="M25 27h16l7 21-15 6-14-6z" fill="url(#robe)" stroke="#4b1a21" stroke-width="2"/>
      <circle cx="33" cy="19" r="8" fill="#e5b282" stroke="#302015" stroke-width="2"/>
      <path d="M25 19c3-9 16-9 18 0-6-2-12-2-18 0z" fill="#5b2934"/>
      <path d="M52 24c9 4 8 12 0 14 4-5 2-9 0-14z" fill="url(#flame)"/>
    </g>
    <g transform="translate(192 0)">
      <ellipse cx="32" cy="55" rx="17" ry="5" fill="#000" opacity=".25"/>
      <path d="M24 28h16l6 20-14 6-14-6z" fill="url(#robe)" stroke="#4b1a21" stroke-width="2"/>
      <circle cx="32" cy="20" r="8" fill="#e5b282" stroke="#302015" stroke-width="2"/>
      <path d="M24 20c3-9 16-9 18 0-6-2-12-2-18 0z" fill="#5b2934"/>
      <circle cx="49" cy="27" r="6" fill="url(#flame)"/>
    </g>
  </g>
</svg>
