<svg xmlns="http://www.w3.org/2000/svg" width="256" height="64" viewBox="0 0 256 64">
  <defs>
    <linearGradient id="cloth" x1="0" x2="1" y1="0" y2="1">
      <stop offset="0" stop-color="#ffb58f"/>
      <stop offset="1" stop-color="#a6483e"/>
    </linearGradient>
    <filter id="soft" x="-20%" y="-20%" width="140%" height="140%">
      <feDropShadow dx="0" dy="3" stdDeviation="2" flood-color="#000" flood-opacity=".35"/>
    </filter>
  </defs>
  <g filter="url(#soft)" stroke-linecap="round" stroke-linejoin="round">
    <g transform="translate(0 0)">
      <ellipse cx="32" cy="55" rx="17" ry="5" fill="#000" opacity=".25"/>
      <path d="M27 25h12l6 22-12 6-13-6z" fill="url(#cloth)" stroke="#421d18" stroke-width="2"/>
      <circle cx="33" cy="18" r="8" fill="#e7bc91" stroke="#352116" stroke-width="2"/>
      <path d="M24 17c4-8 16-8 19 0-7-3-13-3-19 0z" fill="#70322a"/>
      <path d="M44 17l-24 36" stroke="#d9bd80" stroke-width="3"/>
      <path d="M46 14l4-8 2 9z" fill="#e9e1cc" stroke="#5e5d55" stroke-width="1.5"/>
    </g>
    <g transform="translate(64 0)">
      <ellipse cx="32" cy="55" rx="17" ry="5" fill="#000" opacity=".25"/>
      <path d="M26 26h12l7 21-12 6-13-6z" fill="url(#cloth)" stroke="#421d18" stroke-width="2"/>
      <circle cx="32" cy="18" r="8" fill="#e7bc91" stroke="#352116" stroke-width="2"/>
      <path d="M23 17c4-8 16-8 19 0-7-3-13-3-19 0z" fill="#70322a"/>
      <path d="M47 20l-30 29" stroke="#d9bd80" stroke-width="3"/>
      <path d="M50 17l6-7v9z" fill="#e9e1cc" stroke="#5e5d55" stroke-width="1.5"/>
    </g>
    <g transform="translate(128 0)">
      <ellipse cx="32" cy="55" rx="17" ry="5" fill="#000" opacity=".25"/>
      <path d="M25 25h13l8 21-13 7-14-7z" fill="url(#cloth)" stroke="#421d18" stroke-width="2"/>
      <circle cx="32" cy="17" r="8" fill="#e7bc91" stroke="#352116" stroke-width="2"/>
      <path d="M23 16c4-8 16-8 19 0-7-3-13-3-19 0z" fill="#70322a"/>
      <path d="M51 31l-38 13" stroke="#d9bd80" stroke-width="3"/>
      <path d="M54 29l8-3-5 7z" fill="#e9e1cc" stroke="#5e5d55" stroke-width="1.5"/>
    </g>
    <g transform="translate(192 0)">
      <ellipse cx="32" cy="55" rx="17" ry="5" fill="#000" opacity=".25"/>
      <path d="M27 24h12l6 22-12 7-13-7z" fill="url(#cloth)" stroke="#421d18" stroke-width="2"/>
      <circle cx="33" cy="18" r="8" fill="#e7bc91" stroke="#352116" stroke-width="2"/>
      <path d="M24 17c4-8 16-8 19 0-7-3-13-3-19 0z" fill="#70322a"/>
      <path d="M44 17l-24 36" stroke="#d9bd80" stroke-width="3"/>
      <path d="M46 14l4-8 2 9z" fill="#e9e1cc" stroke="#5e5d55" stroke-width="1.5"/>
    </g>
  </g>
</svg>
