<svg xmlns="http://www.w3.org/2000/svg" width="256" height="64" viewBox="0 0 256 64">
  <defs>
    <linearGradient id="steel" x1="0" x2="1" y1="0" y2="1">
      <stop offset="0" stop-color="#f1dcc0"/>
      <stop offset="1" stop-color="#777f87"/>
    </linearGradient>
    <linearGradient id="blue" x1="0" x2="1">
      <stop offset="0" stop-color="#76bfff"/>
      <stop offset="1" stop-color="#205f9a"/>
    </linearGradient>
    <filter id="soft" x="-20%" y="-20%" width="140%" height="140%">
      <feDropShadow dx="0" dy="3" stdDeviation="2" flood-color="#000" flood-opacity=".35"/>
    </filter>
  </defs>
  <g filter="url(#soft)">
    <g transform="translate(0 0)">
      <ellipse cx="32" cy="55" rx="18" ry="5" fill="#000" opacity=".25"/>
      <path d="M24 25h16l4 20-12 8-12-8z" fill="url(#blue)" stroke="#14273a" stroke-width="2"/>
      <circle cx="32" cy="19" r="9" fill="#e9c89d" stroke="#34281f" stroke-width="2"/>
      <path d="M23 19c3-9 16-11 20 0-6-3-13-3-20 0z" fill="#525a61"/>
      <path d="M14 29l13 3-3 19-13-4z" fill="url(#steel)" stroke="#2a3238" stroke-width="2"/>
      <path d="M44 29l6 14" stroke="#d7c8a8" stroke-width="4" stroke-linecap="round"/>
    </g>
    <g transform="translate(64 0)">
      <ellipse cx="32" cy="55" rx="18" ry="5" fill="#000" opacity=".25"/>
      <path d="M25 25h15l5 20-12 8-13-8z" fill="url(#blue)" stroke="#14273a" stroke-width="2"/>
      <circle cx="33" cy="18" r="9" fill="#e9c89d" stroke="#34281f" stroke-width="2"/>
      <path d="M24 18c3-9 16-11 20 0-6-3-13-3-20 0z" fill="#525a61"/>
      <path d="M13 30l13 2-2 18-14-3z" fill="url(#steel)" stroke="#2a3238" stroke-width="2"/>
      <path d="M45 31l8 12" stroke="#d7c8a8" stroke-width="4" stroke-linecap="round"/>
    </g>
    <g transform="translate(128 0)">
      <ellipse cx="32" cy="55" rx="18" ry="5" fill="#000" opacity=".25"/>
      <path d="M23 26h16l5 19-12 8-13-8z" fill="url(#blue)" stroke="#14273a" stroke-width="2"/>
      <circle cx="32" cy="20" r="9" fill="#e9c89d" stroke="#34281f" stroke-width="2"/>
      <path d="M23 20c3-9 16-11 20 0-6-3-13-3-20 0z" fill="#525a61"/>
      <path d="M12 28l15 4-4 20-14-5z" fill="url(#steel)" stroke="#2a3238" stroke-width="2"/>
      <path d="M44 28l4 16" stroke="#d7c8a8" stroke-width="4" stroke-linecap="round"/>
    </g>
    <g transform="translate(192 0)">
      <ellipse cx="32" cy="55" rx="18" ry="5" fill="#000" opacity=".25"/>
      <path d="M25 24h16l4 20-13 9-12-9z" fill="url(#blue)" stroke="#14273a" stroke-width="2"/>
      <circle cx="33" cy="18" r="9" fill="#e9c89d" stroke="#34281f" stroke-width="2"/>
      <path d="M24 18c3-9 16-11 20 0-6-3-13-3-20 0z" fill="#525a61"/>
      <path d="M15 30l13 2-3 19-13-4z" fill="url(#steel)" stroke="#2a3238" stroke-width="2"/>
      <path d="M45 30l11 9" stroke="#d7c8a8" stroke-width="4" stroke-linecap="round"/>
    </g>
  </g>
</svg>
